# xmcd CD database file
#
# Track frame offsets:
#	187
#	34990
#	68620
#	84757
#	138740
#	150980
#	191150
#	206670
#	227760
#	241160
#	266592
#	287620
#
# Disc length: 4196 seconds
#
# Revision: 0
# Processed by: cddbd v1.5.2PL0 Copyright (c) Steve Scherf et al.
# Submitted via: CDex 1.70beta3
#
DISCID=a110620c
DTITLE=ジャック・ルーシエ・トリオ - ベスト・オブ・プレイ・バッハ
DYEAR=1900
DGENRE=Jazz
TTITLE0=アダージョとフーガ八長調 第1楽章
TTITLE1=アダージョとフーガ八長調 第2楽章・第3楽章
TTITLE2=シチリアーノ (フルート・ソナタ第2番 変ホ長調)
TTITLE3=目をさませと呼ぶ声か聞こえ (「6つのコラール」より)
TTITLE4=パッサカーリアハ短調
TTITLE5=トッカータとフーガ ニ短調
TTITLE6=アリア(菅弦楽組曲第3番 二長調)
TTITLE7=コラール第16番(わが主キリストはヨルダン川に来たれり)
TTITLE8=前奏曲 平均律クラヴィーア曲集 第1巻-第16番 ト短調
TTITLE9=イタリア協奏曲へ長調 第1楽章
TTITLE10=イタリア協奏曲へ長調 第2楽章
TTITLE11=イタリア協奏曲へ長調 第3楽章
EXTD=
EXTT0=
EXTT1=
EXTT2=
EXTT3=
EXTT4=
EXTT5=
EXTT6=
EXTT7=
EXTT8=
EXTT9=
EXTT10=
EXTT11=
PLAYORDER=
